<svg width="500.000000pt" height="500.000000pt" viewBox="0 0 500.000000 500.000000" preserveAspectRatio="xMidYMid meet">
  <path d="M2255 4929 c-392 -42 -790 -186 -1107 -400 -270 -182 -524 -441 -700
  -714 -309 -477 -440 -1073 -362 -1643 106 -782 583 -1463 1286 -1837 218 -116
  502 -208 780 -252 159 -25 536 -25 698 0 584 90 1087 359 1466 783 286 319
  472 679 569 1099 75 325 74 728 -2 1075 -170 774 -733 1432 -1483 1732 -146
  59 -359 115 -540 143 -127 19 -479 28 -605 14z m588 -1161 c3 -7 111 -276 240
  -598 129 -322 355 -884 502 -1250 147 -366 270 -673 272 -683 5 -16 -16 -17
  -382 -15 l-388 3 -53 160 c-29 88 -61 179 -69 202 l-17 43 -450 2 c-291 2
  -452 -1 -457 -7 -12 -17 -47 -113 -96 -262 l-47 -143 -379 0 c-209 0 -378 3
  -376 8 3 4 75 187 161 407 87 220 222 564 301 765 209 529 494 1256 518 1322
  l22 58 346 0 c268 0 348 -3 352 -12z"/>
  <path d="M2479 2944 c-42 -110 -259 -732 -259 -745 0 -5 116 -9 275 -9 151 0
  275 2 275 4 0 13 -269 767 -276 775 -2 2 -8 -9 -15 -25z"/>
</svg>
