<?xml version="1.0" standalone="no"?>
<svg version="1.0" xmlns="http://www.w3.org/2000/svg"
 width="512.000000pt" height="512.000000pt" viewBox="0 0 512.000000 512.000000"
 preserveAspectRatio="xMidYMid meet">
<g transform="translate(0.000000,512.000000) scale(0.100000,-0.100000)"
fill="#000000" stroke="none">
<path d="M2330 5050 c-1172 -122 -2090 -1008 -2246 -2170 -23 -168 -23 -472 0
-640 84 -626 397 -1196 876 -1596 373 -312 791 -495 1290 -566 143 -20 515
-17 665 6 559 84 1050 336 1442 739 457 470 703 1076 703 1732 0 695 -263
1316 -761 1800 -377 366 -843 597 -1364 676 -148 23 -470 33 -605 19z m648
-1357 c39 -98 275 -688 526 -1310 l454 -1133 -398 0 -398 0 -53 158 c-28 86
-60 181 -71 210 l-19 52 -467 0 -467 0 -70 -210 -70 -210 -388 0 c-307 0 -388
3 -384 12 6 15 240 610 310 788 25 63 74 189 110 280 36 91 185 471 332 845
147 374 269 683 272 688 2 4 163 7 357 7 l353 0 71 -177z"/>
<path d="M2540 3019 c-16 -38 -270 -763 -270 -771 0 -4 128 -8 285 -8 157 0
285 1 285 3 0 6 -282 792 -286 796 -2 2 -8 -7 -14 -20z"/>
</g>
</svg>
